<svg width="67" height="91" viewBox="0 0 67 91" fill="none" xmlns="http://www.w3.org/2000/svg">
<path d="M37.2274 1.28869C37.2274 0.129652 38.6959 -0.437982 39.5295 0.398834L65.8075 26.7786C66.6221 27.5963 66.0197 28.9545 64.8423 28.9545H41.2379C39.0229 28.9545 37.2273 27.2271 37.2273 25.0962L37.2274 1.28869Z" fill="#231F20"/>
<path fill-rule="evenodd" clip-rule="evenodd" d="M33.0909 25.5937V1.26389C33.0909 0.565862 32.5422 0 31.8653 0H8.27273C6.07866 0 3.97446 0.898826 2.42302 2.49875C0.871587 4.09867 0 6.26862 0 8.53125V82.4687C0 84.7314 0.871587 86.9013 2.42302 88.5013C3.97446 90.1012 6.07866 91 8.27273 91H57.9091C60.1032 91 62.2074 90.1012 63.7588 88.5013C65.3102 86.9013 66.1818 84.7314 66.1818 82.4687V35.3889C66.1818 34.6909 65.6331 34.125 64.9562 34.125H41.3636C39.1696 34.125 37.0654 33.2262 35.5139 31.6263C33.9625 30.0263 33.0909 27.8564 33.0909 25.5937ZM23.2823 17.0489C23.2823 17.5377 22.8993 17.9206 22.4652 17.9206H21.6481L21.666 22.2706C21.666 22.3439 21.6608 22.4172 21.6532 22.4906V22.9277C21.6532 23.5278 21.1961 24.0139 20.6318 24.0139H20.2232C20.1951 24.0139 20.167 24.0139 20.1389 24.0112C20.1032 24.0139 20.0674 24.0139 20.0317 24.0139H18.589C18.0246 24.0139 17.5675 23.5278 17.5675 22.9277V20.5382C17.5675 20.0576 17.2024 19.6693 16.7504 19.6693H15.1162C14.6642 19.6693 14.299 20.0576 14.299 20.5382V22.9277C14.299 23.5278 13.8419 24.0139 13.2776 24.0139H11.8502C11.8119 24.0139 11.7737 24.0112 11.7354 24.0085C11.7047 24.0112 11.674 24.0139 11.6434 24.0139H11.2348C10.6705 24.0139 10.2134 23.5278 10.2134 22.9277V19.8865C10.2134 19.8621 10.2134 19.8349 10.2159 19.8105V17.9206H9.39625C8.93662 17.9206 8.57912 17.5404 8.57912 17.0489C8.57912 16.8045 8.65573 16.5873 8.83448 16.3972L15.3817 10.3283C15.5605 10.1383 15.7648 10.1111 15.9435 10.1111C16.1222 10.1111 16.3265 10.1654 16.4797 10.3012L23.0015 16.3972C23.2057 16.5873 23.3079 16.8045 23.2823 17.0489ZM9.19192 46.7639C7.49973 46.7639 6.12795 48.1785 6.12795 49.9236C6.12795 51.6687 7.49974 53.0833 9.19192 53.0833H55.7643C57.4565 53.0833 58.8283 51.6687 58.8283 49.9236C58.8283 48.1785 57.4565 46.7639 55.7643 46.7639H9.19192ZM6.12795 61.2986C6.12795 59.5535 7.49973 58.1389 9.19192 58.1389H55.7643C57.4565 58.1389 58.8283 59.5535 58.8283 61.2986C58.8283 63.0437 57.4565 64.4583 55.7643 64.4583H9.19192C7.49974 64.4583 6.12795 63.0437 6.12795 61.2986ZM9.19192 70.7778C7.49973 70.7778 6.12795 72.1924 6.12795 73.9375C6.12795 75.6826 7.49973 77.0972 9.19192 77.0972H45.9596C47.6518 77.0972 49.0236 75.6826 49.0236 73.9375C49.0236 72.1924 47.6518 70.7778 45.9596 70.7778H9.19192Z" fill="#231F20"/>
</svg>
