<svg width="101" height="101" viewBox="0 0 101 101" fill="none" xmlns="http://www.w3.org/2000/svg">
<path fill-rule="evenodd" clip-rule="evenodd" d="M50.5 0.464355C43.8962 0.464355 38.8462 5.51436 38.8462 12.1182V35.4259C38.8462 42.0297 43.8962 47.0797 50.5 47.0797H73.3935C73.6587 47.0797 73.913 47.1851 74.1006 47.3726L87.639 60.9111C88.269 61.5411 89.3462 61.0949 89.3462 60.204V48.0797C89.3462 47.5275 89.7956 47.084 90.3461 47.0406C96.4531 46.5594 101 41.6922 101 35.4259V12.1182C101 5.51436 95.95 0.464355 89.3462 0.464355H50.5ZM11.6538 39.3105C5.05 39.3105 0 44.3605 0 50.9644V74.272C0 80.5383 4.54695 85.4056 10.6539 85.8868C11.2044 85.9302 11.6538 86.3736 11.6538 86.9259V99.0501C11.6538 99.941 12.731 100.387 13.361 99.7573L26.8994 86.2188C27.087 86.0313 27.3413 85.9259 27.6065 85.9259H50.5C57.1038 85.9259 62.1538 80.8759 62.1538 74.272V50.9644H50.5C43.1192 50.9644 37.269 45.9144 35.3267 39.3105H11.6538Z" fill="#231F20"/>
</svg>
