<svg width="107" height="93" viewBox="0 0 107 93" fill="none" xmlns="http://www.w3.org/2000/svg">
<path d="M106.972 46.4092C106.972 49.6787 104.185 52.2398 101.027 52.2398H95.082L95.2121 81.3387C95.2121 81.8291 95.1749 82.3195 95.1192 82.81V85.7344C95.1192 89.7486 91.7937 93 87.688 93H84.7155C84.5112 93 84.3068 93 84.1025 92.9818C83.8424 93 83.5823 93 83.3222 93H72.8256C68.7199 93 65.3945 89.7486 65.3945 85.7344V69.75C65.3945 66.535 62.7378 63.9375 59.4495 63.9375H47.5596C44.2713 63.9375 41.6147 66.535 41.6147 69.75V85.7344C41.6147 89.7486 38.2892 93 34.1835 93H23.7984C23.5197 93 23.241 92.9818 22.9624 92.9637C22.7394 92.9818 22.5165 93 22.2936 93H19.3211C15.2154 93 11.8899 89.7486 11.8899 85.7344V65.3906C11.8899 65.2271 11.8899 65.0455 11.9085 64.882V52.2398H5.94495C2.60092 52.2398 0 49.6969 0 46.4092C0 44.7744 0.557339 43.3213 1.8578 42.0498L49.4917 1.45312C50.7922 0.181641 52.2784 0 53.5789 0C54.8793 0 56.3656 0.363281 57.4802 1.27148L104.928 42.0498C106.415 43.3213 107.158 44.7744 106.972 46.4092Z" fill="#231F20"/>
</svg>
