<svg width="119" height="92" viewBox="0 0 119 92" fill="none" xmlns="http://www.w3.org/2000/svg">
<path d="M85.6767 54.1174C85.6767 56.7758 83.4447 58.8582 80.9152 58.8582H76.1537L76.2579 82.5181C76.2579 82.9168 76.2281 83.3156 76.1835 83.7143V86.0921C76.1835 89.3561 73.5201 91.9997 70.2317 91.9997H67.8509C67.6873 91.9997 67.5236 91.9997 67.3599 91.9849C67.1516 91.9997 66.9433 91.9997 66.735 91.9997H58.328C55.0396 91.9997 52.3762 89.3561 52.3762 86.0921V73.0955C52.3762 70.4814 50.2484 68.3694 47.6147 68.3694H38.0917C35.4581 68.3694 33.3303 70.4814 33.3303 73.0955V86.0921C33.3303 89.3561 30.6668 91.9997 27.3784 91.9997H19.0608C18.8376 91.9997 18.6144 91.9849 18.3912 91.9702C18.2126 91.9849 18.0341 91.9997 17.8555 91.9997H15.4748C12.1864 91.9997 9.52294 89.3561 9.52294 86.0921V69.5509C9.52294 69.418 9.52294 69.2703 9.53782 69.1374V58.8582H4.76147C2.08314 58.8582 0 56.7906 0 54.1174C0 52.7882 0.446388 51.6067 1.48796 50.5729L39.6392 17.5643C40.6808 16.5305 41.8712 16.3828 42.9127 16.3828C43.9543 16.3828 45.1447 16.6782 46.0374 17.4166L84.0399 50.5729C85.2303 51.6067 85.8255 52.7882 85.6767 54.1174Z" fill="#231F20"/>
<path fill-rule="evenodd" clip-rule="evenodd" d="M52.9318 9.75702C52.9318 4.36837 57.2466 0 62.5692 0H108.829C114.152 0 118.466 4.36837 118.466 9.75702V80.9832C118.466 86.3719 114.152 90.7403 108.829 90.7403H81.7665C82.6384 89.042 83.1354 87.1055 83.1354 85.0233V83.0742C83.1773 82.6215 83.2082 82.1119 83.2082 81.5645V81.5491L83.1359 65.2927C88.005 64.3454 92.1488 60.2019 92.4102 54.639C92.4219 54.6392 92.4336 54.6393 92.4453 54.6393H103.046C104.111 54.6393 104.974 53.7656 104.974 52.6879V41.9552C104.974 40.8774 104.111 40.0038 103.046 40.0038H92.4453C91.3808 40.0038 90.5178 40.8774 90.5178 41.9552V47.7187C89.8965 46.8363 89.1788 46.0773 88.4485 45.4489L88.4405 45.442L70.8329 30.2468H78.9529C80.0174 30.2468 80.8804 29.3731 80.8804 28.2954V17.5626C80.8804 16.4849 80.0174 15.6112 78.9529 15.6112H68.3517C67.2872 15.6112 66.4242 16.4849 66.4242 17.5626V26.442L52.9318 14.7981V9.75702ZM90.5178 17.5626C90.5178 16.4849 91.3808 15.6112 92.4453 15.6112H103.046C104.111 15.6112 104.974 16.4849 104.974 17.5626V28.2954C104.974 29.3731 104.111 30.2468 103.046 30.2468H92.4453C91.3808 30.2468 90.5178 29.3731 90.5178 28.2954V17.5626ZM90.5178 66.3477C90.5178 65.27 91.3808 64.3963 92.4453 64.3963H103.046C104.111 64.3963 104.974 65.27 104.974 66.3477V77.0804C104.974 78.1582 104.111 79.0318 103.046 79.0318H92.4453C91.3808 79.0318 90.5178 78.1582 90.5178 77.0804V66.3477Z" fill="#231F20"/>
</svg>
