<svg width="110" height="98" viewBox="0 0 110 98" fill="none" xmlns="http://www.w3.org/2000/svg">
<path fill-rule="evenodd" clip-rule="evenodd" d="M109.416 48.9043C109.416 52.3496 106.58 55.0484 103.366 55.0484H97.316L97.4483 85.7117C97.4483 86.2285 97.4105 86.7453 97.3538 87.2621V90.3438C97.3538 94.5738 93.9696 98 89.7914 98H87.6675V98.0005H22.3342V98H20.2176C16.0394 98 12.6552 94.5738 12.6552 90.3438V68.9062C12.6552 68.734 12.6552 68.5426 12.6741 68.3703V55.0484H6.60532C3.20225 55.0484 0.55542 52.3688 0.55542 48.9043C0.55542 47.1816 1.1226 45.6504 2.44601 44.3105L50.9208 1.53125C52.2442 0.191406 53.7567 0 55.0801 0C56.4035 0 57.916 0.382812 59.0504 1.33984L107.336 44.3105C108.849 45.6504 109.605 47.1816 109.416 48.9043ZM62.699 56.6985C60.6569 58.7405 57.8873 59.8878 54.9994 59.8878C52.1115 59.8878 49.3419 58.7405 47.2998 56.6985C45.2578 54.6564 44.1105 51.8868 44.1105 48.9989C44.1105 46.111 45.2578 43.3414 47.2998 41.2993C49.3419 39.2572 52.1115 38.11 54.9994 38.11C57.8873 38.11 60.6569 39.2572 62.699 41.2993C64.7411 43.3414 65.8883 46.111 65.8883 48.9989C65.8883 51.8868 64.7411 54.6564 62.699 56.6985ZM73.1475 81.6655C73.1475 81.6655 76.7771 81.6655 76.7771 78.0359C76.7771 74.4063 73.1475 63.5174 54.9994 63.5174C36.8513 63.5174 33.2217 74.4063 33.2217 78.0359C33.2217 81.6655 36.8513 81.6655 36.8513 81.6655H73.1475Z" fill="#231F20"/>
</svg>
