<svg width="155" height="87" viewBox="0 0 155 87" fill="none" xmlns="http://www.w3.org/2000/svg">
<path fill-rule="evenodd" clip-rule="evenodd" d="M76.3071 49.2904C81.3078 49.2904 86.1037 47.3039 89.6397 43.7679C93.1757 40.2318 95.1622 35.4359 95.1622 30.4352C95.1622 25.4345 93.1757 20.6387 89.6397 17.1026C86.1037 13.5666 81.3078 11.5801 76.3071 11.5801C71.3064 11.5801 66.5105 13.5666 62.9745 17.1026C59.4384 20.6387 57.4519 25.4345 57.4519 30.4352C57.4519 35.4359 59.4384 40.2318 62.9745 43.7679C66.5105 47.3039 71.3064 49.2904 76.3071 49.2904ZM114.017 80.7157C114.017 87.0007 107.732 87.0007 107.732 87.0007H44.8818C44.8818 87.0007 38.5967 87.0007 38.5967 80.7157C38.5967 74.4306 44.8818 55.5755 76.3071 55.5755C107.732 55.5755 114.017 74.4306 114.017 80.7157Z" fill="#231F20"/>
<path fill-rule="evenodd" clip-rule="evenodd" d="M46.9597 29.6129C43.7066 32.8661 39.2943 34.6937 34.6937 34.6937C30.093 34.6937 25.6808 32.8661 22.4276 29.6129C19.1744 26.3597 17.3468 21.9475 17.3468 17.3468C17.3468 12.7462 19.1744 8.33393 22.4276 5.08077C25.6808 1.82761 30.093 0 34.6937 0C39.2943 0 43.7066 1.82761 46.9597 5.08077C50.2129 8.33393 52.0405 12.7462 52.0405 17.3468C52.0405 21.9475 50.2129 26.3597 46.9597 29.6129ZM36.5952 69.3873C39.7398 62.4899 47.5462 54.0362 64.8686 52.1163C60.2253 46.167 51.2535 40.4759 34.6937 40.4759C5.78228 40.4759 0 57.8228 0 63.605C0 69.3873 5.78228 69.3873 5.78228 69.3873H36.5952Z" fill="#231F20"/>
<path fill-rule="evenodd" clip-rule="evenodd" d="M131.877 29.6129C128.624 32.8661 124.211 34.6937 119.611 34.6937C115.01 34.6937 110.598 32.8661 107.345 29.6129C104.092 26.3597 102.264 21.9475 102.264 17.3468C102.264 12.7462 104.092 8.33393 107.345 5.08077C110.598 1.82761 115.01 0 119.611 0C124.211 0 128.624 1.82761 131.877 5.08077C135.13 8.33393 136.958 12.7462 136.958 17.3468C136.958 21.9475 135.13 26.3597 131.877 29.6129ZM148.522 69.3873C148.522 69.3873 154.304 69.3873 154.304 63.605C154.304 57.8228 148.522 40.4759 119.611 40.4759C102.874 40.4759 93.8881 46.2894 89.2883 52.3073C105.538 54.5438 112.973 62.6975 116.023 69.3873H148.522Z" fill="#231F20"/>
</svg>
