<svg width="17" height="20" viewBox="0 0 17 20" fill="none" xmlns="http://www.w3.org/2000/svg">
<path d="M14.0736 7.05882H12.1429V1.17647C12.1429 0.529412 11.5964 0 10.9286 0H6.07143C5.40357 0 4.85714 0.529412 4.85714 1.17647V7.05882H2.92643C1.84571 7.05882 1.29929 8.32941 2.06429 9.07059L7.63786 14.4706C8.11143 14.9294 8.87643 14.9294 9.35 14.4706L14.9236 9.07059C15.6886 8.32941 15.1543 7.05882 14.0736 7.05882ZM0 18.8235C0 19.4706 0.546429 20 1.21429 20H15.7857C16.4536 20 17 19.4706 17 18.8235C17 18.1765 16.4536 17.6471 15.7857 17.6471H1.21429C0.546429 17.6471 0 18.1765 0 18.8235Z" fill="#231F20"/>
</svg>
