<svg width="16" height="22" viewBox="0 0 16 22" fill="none" xmlns="http://www.w3.org/2000/svg">
<path d="M9.00003 0.311552C9.00003 0.0313443 9.35504 -0.105886 9.55657 0.0964214L15.9095 6.47394C16.1064 6.67164 15.9608 7 15.6762 7H9.96959C9.4341 7 9 6.58238 9 6.06721L9.00003 0.311552Z" fill="#FBFBFB"/>
<path fill-rule="evenodd" clip-rule="evenodd" d="M8 6.1875V0.305555C8 0.136802 7.86734 0 7.7037 0H2C1.46957 0 0.960859 0.217299 0.585786 0.604092C0.210713 0.990886 0 1.51549 0 2.0625V19.9375C0 20.4845 0.210713 21.0091 0.585786 21.3959C0.960859 21.7827 1.46957 22 2 22H14C14.5304 22 15.0391 21.7827 15.4142 21.3959C15.7893 21.0091 16 20.4845 16 19.9375V8.55556C16 8.3868 15.8673 8.25 15.7037 8.25H10C9.46957 8.25 8.96086 8.0327 8.58579 7.64591C8.21071 7.25911 8 6.73451 8 6.1875ZM5.6287 4.12172C5.6287 4.23988 5.5361 4.33244 5.43115 4.33244H5.2336L5.23792 5.3841C5.23792 5.40183 5.23669 5.41955 5.23484 5.43728V5.54297C5.23484 5.68805 5.12433 5.80556 4.9879 5.80556H4.88913C4.88234 5.80556 4.87555 5.80556 4.86876 5.8049C4.86011 5.80556 4.85147 5.80556 4.84283 5.80556H4.49403C4.3576 5.80556 4.2471 5.68805 4.2471 5.54297V4.96528C4.2471 4.84908 4.15882 4.75521 4.04955 4.75521H3.65446C3.54519 4.75521 3.45691 4.84908 3.45691 4.96528V5.54297C3.45691 5.68805 3.3464 5.80556 3.20997 5.80556H2.86488C2.85563 5.80556 2.84638 5.8049 2.83713 5.80424C2.82972 5.8049 2.82229 5.80556 2.81488 5.80556H2.7161C2.57967 5.80556 2.46917 5.68805 2.46917 5.54297V4.80773C2.46917 4.80182 2.46917 4.79525 2.46979 4.78934V4.33244H2.27162C2.1605 4.33244 2.07407 4.24054 2.07407 4.12172C2.07407 4.06264 2.09259 4.01012 2.13581 3.96417L3.71866 2.49696C3.76187 2.45101 3.81126 2.44444 3.85447 2.44444C3.89769 2.44444 3.94707 2.45757 3.98411 2.4904L5.56079 3.96417C5.61018 4.01012 5.63487 4.06264 5.6287 4.12172ZM2.22222 11.3056C1.81312 11.3056 1.48148 11.6476 1.48148 12.0694C1.48148 12.4913 1.81312 12.8333 2.22222 12.8333H13.4815C13.8906 12.8333 14.2222 12.4913 14.2222 12.0694C14.2222 11.6476 13.8906 11.3056 13.4815 11.3056H2.22222ZM1.48148 14.8194C1.48148 14.3976 1.81312 14.0556 2.22222 14.0556H13.4815C13.8906 14.0556 14.2222 14.3976 14.2222 14.8194C14.2222 15.2413 13.8906 15.5833 13.4815 15.5833H2.22222C1.81312 15.5833 1.48148 15.2413 1.48148 14.8194ZM2.22222 17.1111C1.81312 17.1111 1.48148 17.4531 1.48148 17.875C1.48148 18.2969 1.81312 18.6389 2.22222 18.6389H11.1111C11.5202 18.6389 11.8519 18.2969 11.8519 17.875C11.8519 17.4531 11.5202 17.1111 11.1111 17.1111H2.22222Z" fill="#FBFBFB"/>
</svg>
