<svg width="21" height="21" viewBox="0 0 21 21" fill="none" xmlns="http://www.w3.org/2000/svg">
<path fill-rule="evenodd" clip-rule="evenodd" d="M10.5 0.301758C9.12693 0.301758 8.07693 1.35176 8.07693 2.72484V7.57099C8.07693 8.94407 9.12693 9.99407 10.5 9.99407H14.9319C15.1972 9.99407 15.4515 10.0994 15.6391 10.287L17.7234 12.3713C18.0384 12.6863 18.5769 12.4632 18.5769 12.0177V10.4941C18.5769 10.2179 18.8029 9.99951 19.0739 9.94653C20.1955 9.72727 21 8.77291 21 7.57099V2.72484C21 1.35176 19.95 0.301758 18.5769 0.301758H10.5ZM2.42308 8.37868C1.05 8.37868 0 9.42869 0 10.8018V15.6479C0 16.8498 0.804542 17.8042 1.92607 18.0235C2.19708 18.0764 2.42308 18.2949 2.42308 18.571V20.0947C2.42308 20.5401 2.96165 20.7632 3.27663 20.4482L5.36096 18.3639C5.54849 18.1764 5.80285 18.071 6.06806 18.071H10.5C11.8731 18.071 12.9231 17.021 12.9231 15.6479V10.8018H10.5C8.96539 10.8018 7.749 9.75176 7.34516 8.37868H2.42308Z" fill="#FBFBFB"/>
</svg>
