<svg width="22" height="18" viewBox="0 0 22 18" fill="none" xmlns="http://www.w3.org/2000/svg">
<path d="M7.07143 0C6.44628 0 5.84673 0.237053 5.40468 0.65901C4.96263 1.08097 4.71429 1.65326 4.71429 2.25V3H3.14286C2.30932 3 1.50992 3.31607 0.920522 3.87868C0.331122 4.44129 0 5.20435 0 6V12.75C0 13.3467 0.248341 13.919 0.690391 14.341C1.13244 14.7629 1.73199 15 2.35714 15H4.71429V15.75C4.71429 16.3467 4.96263 16.919 5.40468 17.341C5.84673 17.7629 6.44628 18 7.07143 18H15.0857C15.7109 18 16.3104 17.7629 16.7525 17.341C17.1945 16.919 17.4429 16.3467 17.4429 15.75V15H19.6429C20.268 15 20.8676 14.7629 21.3096 14.341C21.7517 13.919 22 13.3467 22 12.75V6C22 5.20435 21.6689 4.44129 21.0795 3.87868C20.4901 3.31607 19.6907 3 18.8571 3H17.2857V2.25C17.2857 1.65326 17.0374 1.08097 16.5953 0.65901C16.1533 0.237053 15.5537 0 14.9286 0H7.07143ZM15.7143 3H6.28571V2.25C6.28571 2.05109 6.36849 1.86032 6.51584 1.71967C6.66319 1.57902 6.86304 1.5 7.07143 1.5H14.9286C15.137 1.5 15.3368 1.57902 15.4842 1.71967C15.6315 1.86032 15.7143 2.05109 15.7143 2.25V3ZM7.07143 12H15.0857C15.2941 12 15.4939 12.079 15.6413 12.2197C15.7886 12.3603 15.8714 12.5511 15.8714 12.75V15.75C15.8714 15.9489 15.7886 16.1397 15.6413 16.2803C15.4939 16.421 15.2941 16.5 15.0857 16.5H7.07143C6.86304 16.5 6.66319 16.421 6.51584 16.2803C6.36849 16.1397 6.28571 15.9489 6.28571 15.75V12.75C6.28571 12.5511 6.36849 12.3603 6.51584 12.2197C6.66319 12.079 6.86304 12 7.07143 12Z" fill="#231F20"/>
</svg>
