<svg width="18" height="19" viewBox="0 0 18 19" fill="none" xmlns="http://www.w3.org/2000/svg">
<path fill-rule="evenodd" clip-rule="evenodd" d="M13.0848 18.5915C15.3275 18.5915 17.1457 16.732 17.1457 14.4383C17.1457 12.1446 15.3275 10.2852 13.0848 10.2852C10.842 10.2852 9.02393 12.1446 9.02393 14.4383C9.02393 16.732 10.842 18.5915 13.0848 18.5915ZM13.0863 13.8057L12.4099 12.5506H11.2703L12.427 14.4229L11.239 16.3262H12.39L13.0863 15.0478L13.7826 16.3262H14.9307L13.7456 14.4229L14.8995 12.5506H13.7627L13.0863 13.8057Z" fill="#FBFBFB"/>
<path fill-rule="evenodd" clip-rule="evenodd" d="M7.68608 8.52357C5.56729 8.52357 3.84304 6.70302 3.84304 4.46589C3.84304 2.22875 5.56729 0.408203 7.68608 0.408203C9.80488 0.408203 11.5291 2.22875 11.5291 4.46589C11.5291 6.70302 9.80488 8.52357 7.68608 8.52357ZM10.2976 10.399C10.0029 10.3516 9.70115 10.327 9.3941 10.327H5.97806C2.68159 10.327 0 13.1592 0 16.6389V17.5406H9.36645C8.68581 16.6895 8.27749 15.6018 8.27749 14.4165C8.27749 12.7605 9.07451 11.2949 10.2976 10.399Z" fill="#FBFBFB"/>
</svg>
