<svg width="77" height="94" viewBox="0 0 77 94" fill="none" xmlns="http://www.w3.org/2000/svg">
<path d="M33.6875 60.2775V75.2C33.6875 76.5317 34.1495 77.6471 35.0735 78.5464C35.9943 79.4488 37.1365 79.9 38.5 79.9C39.8635 79.9 41.0073 79.4488 41.9313 78.5464C42.8521 77.6471 43.3125 76.5317 43.3125 75.2V60.2775L47.6437 64.5075C48.125 64.9775 48.6672 65.33 49.2704 65.565C49.8703 65.8 50.4719 65.8971 51.0751 65.8564C51.675 65.8188 52.2557 65.6825 52.8172 65.4475C53.3786 65.2125 53.9 64.86 54.3813 64.39C55.2635 63.45 55.7255 62.3533 55.7673 61.1C55.8058 59.8467 55.3438 58.75 54.3813 57.81L41.8688 45.59C41.3875 45.12 40.8661 44.7863 40.3047 44.5889C39.7432 44.3946 39.1417 44.2975 38.5 44.2975C37.8583 44.2975 37.2568 44.3946 36.6953 44.5889C36.1339 44.7863 35.6125 45.12 35.1313 45.59L22.6187 57.81C21.6562 58.75 21.1959 59.8467 21.2376 61.1C21.2761 62.3533 21.7766 63.45 22.7391 64.39C23.7016 65.2517 24.8245 65.7029 26.1078 65.7436C27.3911 65.7812 28.5141 65.33 29.4766 64.39L33.6875 60.2775ZM9.625 94C6.97813 94 4.71304 93.0804 2.82975 91.2411C0.943249 89.3987 0 87.185 0 84.6V9.4C0 6.815 0.943249 4.6013 2.82975 2.7589C4.71304 0.919633 6.97813 0 9.625 0H44.1547C45.438 0 46.662 0.235 47.8266 0.705C48.988 1.175 50.0099 1.84083 50.8922 2.7025L74.2328 25.4975C75.1151 26.3592 75.7969 27.3571 76.2781 28.4914C76.7594 29.6288 77 30.8242 77 32.0775V84.6C77 87.185 76.0584 89.3987 74.1751 91.2411C72.2886 93.0804 70.0219 94 67.375 94H9.625ZM43.3125 28.2V11.4C43.3125 10.2954 42.4171 9.4 41.3125 9.4H9.625V82.6C9.625 83.7046 10.5204 84.6 11.625 84.6H65.375C66.4796 84.6 67.375 83.7046 67.375 82.6V34.9C67.375 33.7954 66.4796 32.9 65.375 32.9H48.125C46.7615 32.9 45.6193 32.4488 44.6985 31.5464C43.7745 30.6471 43.3125 29.5317 43.3125 28.2Z" fill="#231F20"/>
</svg>
